<mxfile host="app.diagrams.net" modified="2021-04-24T09:37:26.017Z" agent="5.0 (Windows NT 10.0; Win64; x64) AppleWebKit/537.36 (KHTML, like Gecko) Chrome/90.0.4430.85 Safari/537.36" etag="Mqz76Rkx9B3yPI1-Aq7M" version="14.6.1" type="github">
  <diagram name="Page-1" id="13e1069c-82ec-6db2-03f1-153e76fe0fe0">
    <mxGraphModel dx="871" dy="491" grid="1" gridSize="10" guides="1" tooltips="1" connect="1" arrows="1" fold="1" page="1" pageScale="1" pageWidth="1100" pageHeight="850" background="#ffffff" math="0" shadow="0">
      <root>
        <mxCell id="0" />
        <mxCell id="1" parent="0" />
        <mxCell id="7baba1c4bc27f4b0-2" value="调度员" style="shape=umlLifeline;perimeter=lifelinePerimeter;whiteSpace=wrap;html=1;container=1;collapsible=0;recursiveResize=0;outlineConnect=0;rounded=1;shadow=0;comic=0;labelBackgroundColor=none;strokeWidth=1;fontFamily=Verdana;fontSize=12;align=center;" parent="1" vertex="1">
          <mxGeometry x="240" y="80" width="100" height="580" as="geometry" />
        </mxCell>
        <mxCell id="7baba1c4bc27f4b0-10" value="" style="html=1;points=[];perimeter=orthogonalPerimeter;rounded=0;shadow=0;comic=0;labelBackgroundColor=none;strokeWidth=1;fontFamily=Verdana;fontSize=12;align=center;" parent="7baba1c4bc27f4b0-2" vertex="1">
          <mxGeometry x="45" y="100" width="10" height="440" as="geometry" />
        </mxCell>
        <mxCell id="k_BUw5CCeSseRYGUXJ2Z-21" value="" style="html=1;points=[];perimeter=orthogonalPerimeter;" vertex="1" parent="7baba1c4bc27f4b0-2">
          <mxGeometry x="50" y="130" width="10" height="130" as="geometry" />
        </mxCell>
        <mxCell id="k_BUw5CCeSseRYGUXJ2Z-22" value="访问服务队列" style="edgeStyle=orthogonalEdgeStyle;html=1;align=left;spacingLeft=2;endArrow=block;rounded=0;entryX=1;entryY=0;" edge="1" target="k_BUw5CCeSseRYGUXJ2Z-21" parent="7baba1c4bc27f4b0-2">
          <mxGeometry relative="1" as="geometry">
            <mxPoint x="55" y="110" as="sourcePoint" />
            <Array as="points">
              <mxPoint x="80" y="110" />
              <mxPoint x="80" y="130" />
            </Array>
          </mxGeometry>
        </mxCell>
        <mxCell id="k_BUw5CCeSseRYGUXJ2Z-25" value="" style="html=1;points=[];perimeter=orthogonalPerimeter;" vertex="1" parent="7baba1c4bc27f4b0-2">
          <mxGeometry x="55" y="160" width="10" height="60" as="geometry" />
        </mxCell>
        <mxCell id="k_BUw5CCeSseRYGUXJ2Z-26" value="访问等待队列" style="edgeStyle=orthogonalEdgeStyle;html=1;align=left;spacingLeft=2;endArrow=block;rounded=0;entryX=1;entryY=0;" edge="1" target="k_BUw5CCeSseRYGUXJ2Z-25" parent="7baba1c4bc27f4b0-2" source="k_BUw5CCeSseRYGUXJ2Z-21">
          <mxGeometry relative="1" as="geometry">
            <mxPoint x="60" y="140" as="sourcePoint" />
            <Array as="points">
              <mxPoint x="90" y="140" />
              <mxPoint x="90" y="160" />
            </Array>
          </mxGeometry>
        </mxCell>
        <mxCell id="k_BUw5CCeSseRYGUXJ2Z-27" value="重排服务队列" style="html=1;verticalAlign=bottom;endArrow=block;rounded=0;" edge="1" parent="7baba1c4bc27f4b0-2" source="k_BUw5CCeSseRYGUXJ2Z-25" target="k_BUw5CCeSseRYGUXJ2Z-21">
          <mxGeometry x="0.0244" y="40" width="80" relative="1" as="geometry">
            <mxPoint x="60" y="200" as="sourcePoint" />
            <mxPoint x="100" y="200" as="targetPoint" />
            <Array as="points">
              <mxPoint x="90" y="203" />
              <mxPoint x="90" y="230" />
            </Array>
            <mxPoint as="offset" />
          </mxGeometry>
        </mxCell>
        <mxCell id="k_BUw5CCeSseRYGUXJ2Z-30" value="返回服务队列" style="html=1;verticalAlign=bottom;endArrow=open;dashed=1;endSize=8;strokeColor=#000000;rounded=0;" edge="1" parent="7baba1c4bc27f4b0-2" source="k_BUw5CCeSseRYGUXJ2Z-21" target="7baba1c4bc27f4b0-10">
          <mxGeometry x="-0.0769" y="40" relative="1" as="geometry">
            <mxPoint x="190" y="280" as="sourcePoint" />
            <mxPoint x="110" y="310" as="targetPoint" />
            <Array as="points">
              <mxPoint x="80" y="250" />
              <mxPoint x="80" y="270" />
            </Array>
            <mxPoint as="offset" />
          </mxGeometry>
        </mxCell>
        <mxCell id="7baba1c4bc27f4b0-8" value="服务端" style="shape=umlLifeline;perimeter=lifelinePerimeter;whiteSpace=wrap;html=1;container=1;collapsible=0;recursiveResize=0;outlineConnect=0;rounded=1;shadow=0;comic=0;labelBackgroundColor=none;strokeWidth=1;fontFamily=Verdana;fontSize=12;align=center;" parent="1" vertex="1">
          <mxGeometry x="100" y="80" width="100" height="580" as="geometry" />
        </mxCell>
        <mxCell id="7baba1c4bc27f4b0-9" value="" style="html=1;points=[];perimeter=orthogonalPerimeter;rounded=0;shadow=0;comic=0;labelBackgroundColor=none;strokeWidth=1;fontFamily=Verdana;fontSize=12;align=center;" parent="7baba1c4bc27f4b0-8" vertex="1">
          <mxGeometry x="45" y="100" width="10" height="440" as="geometry" />
        </mxCell>
        <mxCell id="7baba1c4bc27f4b0-11" value="发出调度请求" style="html=1;verticalAlign=bottom;endArrow=block;entryX=0;entryY=0;labelBackgroundColor=none;fontFamily=Verdana;fontSize=12;edgeStyle=elbowEdgeStyle;elbow=vertical;" parent="1" source="7baba1c4bc27f4b0-9" target="7baba1c4bc27f4b0-10" edge="1">
          <mxGeometry relative="1" as="geometry">
            <mxPoint x="220" y="190" as="sourcePoint" />
          </mxGeometry>
        </mxCell>
        <mxCell id="7baba1c4bc27f4b0-40" value="Note" style="shape=note;whiteSpace=wrap;html=1;size=14;verticalAlign=top;align=left;spacingTop=-6;rounded=0;shadow=0;comic=0;labelBackgroundColor=none;strokeWidth=1;fontFamily=Verdana;fontSize=12" parent="1" vertex="1">
          <mxGeometry x="100" y="30" width="100" height="35" as="geometry" />
        </mxCell>
        <mxCell id="7baba1c4bc27f4b0-41" value="Note" style="shape=note;whiteSpace=wrap;html=1;size=14;verticalAlign=top;align=left;spacingTop=-6;rounded=0;shadow=0;comic=0;labelBackgroundColor=none;strokeWidth=1;fontFamily=Verdana;fontSize=12" parent="1" vertex="1">
          <mxGeometry x="240" y="30" width="100" height="35" as="geometry" />
        </mxCell>
        <mxCell id="k_BUw5CCeSseRYGUXJ2Z-29" value="返回调度结果" style="html=1;verticalAlign=bottom;endArrow=open;dashed=1;endSize=8;strokeColor=#000000;" edge="1" parent="1" source="7baba1c4bc27f4b0-10" target="7baba1c4bc27f4b0-9">
          <mxGeometry relative="1" as="geometry">
            <mxPoint x="280" y="350" as="sourcePoint" />
            <mxPoint x="200" y="350" as="targetPoint" />
            <Array as="points">
              <mxPoint x="200" y="370" />
            </Array>
          </mxGeometry>
        </mxCell>
      </root>
    </mxGraphModel>
  </diagram>
</mxfile>
